<svg width="168" height="190" viewBox="0 0 168 190" fill="none" xmlns="http://www.w3.org/2000/svg">
<path d="M5 180V185H10H41.554H46.554V180V118.957H74.3309C82.4041 118.957 88.6647 121.031 93.4864 124.848C98.3437 128.694 102.198 134.67 104.762 143.271L104.773 143.305L104.784 143.34L116.769 181.498L117.869 185H121.54H153.338H160.2L158.098 178.468L144.406 135.926C144.405 135.922 144.403 135.918 144.402 135.914C140.967 125.098 136.033 116.365 129.376 110.077C126.765 107.611 123.824 105.527 120.576 103.805C127.315 101.15 133.164 97.4175 138.039 92.5427L138.057 92.5245L138.075 92.5061C146.895 83.503 151.245 72.1827 151.245 58.9209C151.245 41.5432 145.29 27.7705 132.88 18.493C121.042 9.3585 105.95 5 88.0288 5H10H5V10V180ZM82.6475 82.295H46.554V41.9065H82.6475C93.2477 41.9065 100.284 43.9384 104.578 47.1909C108.611 50.2449 110.914 54.9044 110.914 62.1007C110.914 69.297 108.611 73.9566 104.578 77.0105C100.284 80.263 93.2477 82.295 82.6475 82.295Z" stroke="url(#paint0_linear_628_72)" stroke-width="10"/>
<defs>
<linearGradient id="paint0_linear_628_72" x1="10" y1="94.9723" x2="160.388" y2="94.9723" gradientUnits="userSpaceOnUse">
<stop stop-color="#EB4EE6"/>
<stop offset="0.50868" stop-color="#5733F5"/>
<stop offset="1" stop-color="#4EEBC0"/>
</linearGradient>
</defs>
</svg>
